# AST/ASF file generated using VICON BodyLanguage
# -----------------------------------------------
:version 1.10
:name VICON
:units
  mass 1.0
  length 0.45
  angle deg
:documentation
   .ast/.asf automatically generated from VICON data using
   VICON BodyBuilder and BodyLanguage model FoxedUp or BRILLIANT.MOD
:root
   order TX TY TZ RX RY RZ
   axis XYZ
   position 0 0 0  
   orientation 0 0 0 
:bonedata
  begin
     id 1 
     name lhipjoint
     direction 0.584852 -0.759097 0.285867 
     length 2.43633 
     axis 0 0 0  XYZ
  end
  begin
     id 2 
     name lfemur
     direction 0.34202 -0.939693 0  
     length 7.14704  
     axis 0 0 20  XYZ
    dof rx ry rz
    limits (-160.0 20.0)
           (-70.0 70.0)
           (-60.0 70.0)
  end
  begin
     id 3 
     name ltibia
     direction 0.342022 -0.939692 0   
     length 7.68483   
     axis 0 0 20   XYZ
    dof rx
    limits (-10.0 170.0)
  end
  begin
     id 4 
     name lfoot
     direction 0.0999605 -0.274639 0.956337   
     length 2.40452   
     axis -90 7.62852e-016 20   XYZ
    dof rx rz
    limits (-45.0 90.0)
           (-70.0 20.0)
  end
  begin
     id 5 
     name ltoes
     direction 1.53468e-011 -4.21881e-011 1   
     length 1.19837   
     axis -90 7.62852e-016 20   XYZ
    dof rx
    limits (-90.0 20.0)
  end
  begin
     id 6 
     name rhipjoint
     direction -0.569886 -0.769002 0.289597   
     length 2.40495  
     axis 0 0 0  XYZ 
  end
  begin
     id 7 
     name rfemur
     direction -0.34202 -0.939693 0   
     length 7.45086   
     axis 0 0 -20   XYZ
    dof rx ry rz
    limits (-160.0 20.0)
           (-70.0 70.0)
           (-70.0 60.0)
  end
  begin
     id 8 
     name rtibia
     direction -0.34202 -0.939693 0   
     length 7.76831   
     axis 0 0 -20   XYZ
    dof rx
    limits (-10.0 170.0)
 end
 begin
     id 9 
     name rfoot
     direction -0.0798572 -0.219406 0.97236   
     length 2.35911  
     axis -90 -7.62852e-016 -20   XYZ
    dof rx rz
    limits (-45.0 90.0)
           (-20.0 70.0)
  end
  begin
     id 10 
     name rtoes
     direction -1.53469e-011 -4.21728e-011 1   
     length 1.18261   
     axis -90 -7.62852e-016 -20   XYZ
    dof rx
    limits (-90.0 20.0)
  end
  begin
     id 11 
     name lowerback
     direction 0.0242088 0.999437 0.0232389   
     length 2.1561   
     axis 0 0 0   XYZ
    dof rx ry rz
    limits (-20.0 45.0)
           (-30.0 30.0)
           (-30.0 30.0)
  end
  begin
     id 12 
     name upperback
     direction -0.0356893 0.999013 -0.0264323   
     length 2.14431   
     axis 0 0 0   XYZ
    dof rx ry rz
    limits (-20.0 45.0)
           (-30.0 30.0)
           (-30.0 30.0)
  end
  begin
     id 13 
     name thorax
     direction -0.0472163 0.998194 -0.0371284   
     length 2.16169   
     axis 0 0 0   XYZ
    dof rx ry rz
    limits (-20.0 45.0)
           (-30.0 30.0)
           (-30.0 30.0)
  end
  begin
     id 14 
     name lowerneck
     direction 0.00863244 0.999921 0.00911972   
     length 1.58651   
     axis 0 0 0   XYZ
    dof rx ry rz
    limits (-20.0 45.0)
           (-30.0 30.0)
           (-30.0 30.0)
  end
  begin
     id 15 
     name upperneck
     direction 0.149523 0.979068 -0.138086   
     length 1.57486   
     axis 0 0 0   XYZ
    dof rx ry rz
    limits (-20.0 45.0)
           (-30.0 30.0)
           (-30.0 30.0)
  end
  begin
     id 16
     name head
     direction 0.0445219 0.997708 -0.0509576  
     length 1.6019  
     axis 0 0 0   XYZ
    dof rx ry rz
    limits (-20.0 45.0)
           (-30.0 30.0)
           (-30.0 30.0)
  end
  begin
     id 17 
     name lclavicle
     direction 0.911271 0.381667 -0.154644  
     length 3.80848  
     axis 0 0 0   XYZ
    dof ry rz
    limits (-20.0 10.0)
           (0.0 20.0)
  end
  begin
     id 18 
     name lhumerus
     direction 1 -4.49003e-011 2.1308e-027   
     length 5.19069   
     axis 180 -30 -90   XYZ
    dof rx ry rz
    limits (-60.0 90.0)
           (-90.0 90.0)
           (-90.0 90.0)
  end
  begin
     id 19
     name lradius
     direction 1 -4.48914e-011 4.01554e-027   
     length 3.30016   
     axis 180 -30 -90   XYZ
    dof rx
    limits (-10.0 170.0)
  end
  begin
     id 20
     name lwrist
     direction 1 -4.49003e-011 1.1934e-026   
     length 1.65008   
     axis -8.46377e-015 90 90   XYZ
    dof ry
    limits (-180.0 0.0)
 end
  begin
     id 21 
     name lhand
     direction 1 -4.49034e-011 2.38659e-026   
     length 0.707698   
     axis -1.52313e-014 90 90   XYZ
    dof rx rz
    limits (-90.0 90.0)
           (-45.0 45.0)
  end
  begin
     id 22 
     name lfingers
     direction 1 -4.48691e-011 4.77775e-026   
     length 0.570564   
     axis -3.04623e-014 90 90   XYZ
    dof rx
    limits (0.0 90.0)
  end
  begin
     id 23
     name lthumb
     direction 0.707107 -6.34832e-011 0.707107   
     length 0.819219   
     axis -90 45 -1.62303e-014   XYZ
    dof rx rz
    limits (-45.0 45.0)
           (-45.0 45.0)
  end
  begin
     id 24 
     name rclavicle
     direction -0.815579 0.573708 -0.0754329   
     length 3.54371  
     axis 0 0 0   XYZ 
    dof ry rz
    limits (-10.0 20.0)
           (-20.0 0.0)
  end
  begin
     id 25 
     name rhumerus
     direction -1 -4.48956e-011 3.05351e-028  
     length 5.23924   
     axis 180 30 90   XYZ
    dof rx ry rz
    limits (-90.0 60.0)
           (-90.0 90.0)
           (-90.0 90.0)
  end
  begin
     id 26 
     name rradius
     direction -1 -4.49013e-011 3.53849e-027   
     length 3.32953   
     axis 180 30 90   XYZ
    dof rx
    limits (-10.0 170.0)
  end
  begin
     id 27 
     name rwrist
     direction -1 -4.48901e-011 1.19374e-026   
     length 1.66477   
     axis -8.46377e-015 -90 -90   XYZ
    dof ry
    limits (-180.0 0.0)
  end
  begin
     id 28
     name rhand
     direction -1 -4.48877e-011 2.38764e-026   
     length 0.607414   
     axis -1.52313e-014 -90 -90   XYZ
    dof rx rz
    limits (-90.0 90.0)
           (-45.0 45.0)
  end
  begin
     id 29
     name rfingers
     direction -1 -4.48882e-011 4.77521e-026   
     length 0.489712   
     axis -3.04623e-014 -90 -90   XYZ
    dof rx
    limits (0.0 90.0)
  end
  begin
     id 30
     name rthumb
     direction -0.707107 -6.34974e-011 0.707107   
     length 0.703132   
     axis -90 -45 1.62303e-014   XYZ
    dof rx rz
    limits (-45.0 45.0)
           (-45.0 45.0)
  end
:hierarchy
  begin
    root lhipjoint rhipjoint lowerback
    lhipjoint lfemur
    lfemur ltibia
    ltibia lfoot
    lfoot ltoes
    rhipjoint rfemur
    rfemur rtibia
    rtibia rfoot
    rfoot rtoes
    lowerback upperback
    upperback thorax
    thorax lowerneck lclavicle rclavicle
    lowerneck upperneck
    upperneck head
    lclavicle lhumerus
    lhumerus lradius
    lradius lwrist
    lwrist lhand lthumb
    lhand lfingers
    rclavicle rhumerus
    rhumerus rradius
    rradius rwrist
    rwrist rhand rthumb
    rhand rfingers
  end

#!OML:ASF E:\VariousWalksJay\Project 1\Capture day 1\Session 1\Actor2.ASF
:FULLY-SPECIFIED
:DEGREES
580
root 7.24156 16.6723 28.5621 189.473 -64.3577 -171.556
lowerback 12.1556 3.36529 9.43379
upperback 11.9791 3.91595 2.06843
thorax 6.62693 2.11943 -3.31392
lowerneck -0.375617 -8.333 -7.19794
upperneck 14.99 -16.0243 24.6092
head 7.25643 -7.15561 8.12601
rclavicle -4.05521e-014 -3.18055e-015
rhumerus -15.5134 39.5037 -84.2493
rradius 69.1757
rwrist -3.09418
rhand -8.21849 -8.69299
rfingers 7.12502
rthumb 17.6986 -37.9075
lclavicle -4.05521e-014 -3.18055e-015
lhumerus -9.98945 -16.1907 74.0088
lradius 42.5741
lwrist 16.2066
lhand -19.4476 -7.24437
lfingers 7.12502
lthumb 6.87304 22.6241
rfemur -25.776 2.72753 23.4774
rtibia 42.662
rfoot -28.132 -21.9539
rtoes -15.0835
lfemur -45.7333 -15.5414 -0.484863
ltibia 33.9331
lfoot -9.04414 -2.23092
ltoes -6.40362
581
root 7.187 16.6863 28.5206 189.593 -63.0341 -171.446
lowerback 11.9483 3.18138 8.88184
upperback 11.9884 3.6301 1.70221
thorax 6.67937 1.95814 -3.37948
lowerneck -0.339845 -8.27637 -7.26242
upperneck 15.1876 -16.0334 24.6057
head 7.3192 -7.16997 8.14195
rclavicle -7.95139e-016 -4.37326e-014
rhumerus -15.5831 39.5412 -84.3569
rradius 69.0885
rwrist -3.30978
rhand -8.46262 -8.76458
rfingers 7.12502
rthumb 17.4637 -38.0001
lclavicle -7.95139e-016 -4.37326e-014
lhumerus -9.49785 -16.1484 73.5857
lradius 42.5655
lwrist 16.082
lhand -19.5002 -7.29413
lfingers 7.12502
lthumb 6.82235 22.576
rfemur -25.6991 3.49819 23.5097
rtibia 42.3053
rfoot -27.8745 -21.8299
rtoes -14.6069
lfemur -45.2719 -15.065 -0.304664
ltibia 34.0979
lfoot -9.49815 -1.51959
ltoes -6.62108
582
root 7.13197 16.6999 28.4763 189.793 -61.674 -171.449
lowerback 11.7014 3.00105 8.21715
upperback 12.0098 3.33979 1.32213
thorax 6.75869 1.78698 -3.39494
lowerneck -0.312833 -8.22298 -7.35499
upperneck 15.4528 -16.0663 24.5931
head 7.41152 -7.19408 8.1585
rclavicle -4.77083e-014 7.95139e-016
rhumerus -15.6114 39.4931 -84.4189
rradius 68.883
rwrist -3.43014
rhand -8.74043 -8.8184
rfingers 7.12502
rthumb 17.1963 -38.0775
lclavicle -4.77083e-014 7.95139e-016
lhumerus -8.95121 -16.0169 73.1364
lradius 42.5538
lwrist 15.9215
lhand -19.6161 -7.37521
lfingers 7.12502
lthumb 6.71046 22.4985
rfemur -25.592 4.25496 23.5004
rtibia 41.9591
rfoot -27.6486 -21.7109
rtoes -14.0906
lfemur -44.7456 -14.518 -0.231572
ltibia 34.2535
lfoot -9.94672 -0.870656
ltoes -6.82277
583
root 7.07625 16.7128 28.4299 189.997 -60.2808 -171.505
lowerback 11.437 2.82214 7.48719
upperback 12.0397 3.04815 0.927259
thorax 6.8565 1.60994 -3.38883
lowerneck -0.2801 -8.17338 -7.45703
upperneck 15.7689 -16.1214 24.5723
head 7.52378 -7.22851 8.17329
rclavicle -3.02153e-014 1.23246e-014
rhumerus -15.609 39.3486 -84.4414
rradius 68.5834
rwrist -3.43602
rhand -8.9862 -8.843
rfingers 7.12502
rthumb 16.9597 -38.1226
lclavicle -3.02153e-014 1.23246e-014
lhumerus -8.35575 -15.8005 72.6618
lradius 42.5271
lwrist 15.733
lhand -19.776 -7.48931
lfingers 7.12502
lthumb 6.55608 22.3892
rfemur -25.4324 5.00302 23.4703
rtibia 41.6241
rfoot -27.4403 -21.5897
rtoes -13.5884
lfemur -44.1478 -13.925 -0.234982
ltibia 34.4111
lfoot -10.394 -0.269753
ltoes -7.03126
584
root 7.01972 16.7246 28.3819 190.142 -58.8595 -171.554
lowerback 11.163 2.64841 6.7365
upperback 12.0781 2.76332 0.521579
thorax 6.97438 1.43363 -3.38248
lowerneck -0.237612 -8.13046 -7.55374
upperneck 16.1125 -16.1956 24.5395
head 7.64578 -7.27268 8.18203
rclavicle 3.57812e-015 1.27222e-014
rhumerus -15.5893 39.1045 -84.4408
rradius 68.2195
rwrist -3.3752
rhand -9.22524 -8.85621
rfingers 7.12502
rthumb 16.7296 -38.1554
lclavicle 3.57812e-015 1.27222e-014
lhumerus -7.71163 -15.5346 72.1621
lradius 42.4889
lwrist 15.5562
lhand -19.9761 -7.62039
lfingers 7.12502
lthumb 6.36291 22.264
rfemur -25.2115 5.75266 23.4451
rtibia 41.3067
rfoot -27.2257 -21.4686
rtoes -13.19
lfemur -43.4794 -13.3054 -0.274112
ltibia 34.5796
lfoot -10.8425 0.291658
ltoes -7.24487
585
root 6.96267 16.7351 28.3329 190.185 -57.4131 -171.562
lowerback 10.9006 2.47898 5.99009
upperback 12.1248 2.48577 0.115584
thorax 7.10228 1.25867 -3.37992
lowerneck -0.18388 -8.08985 -7.65135
upperneck 16.4671 -16.277 24.4954
head 7.77022 -7.3223 8.18699
rclavicle 2.78299e-015 3.49861e-014
rhumerus -15.5543 38.7824 -84.4124
rradius 67.8205
rwrist -3.27255
rhand -9.43642 -8.87212
rfingers 7.12502
rthumb 16.5263 -38.1883
lclavicle 2.78299e-015 3.49861e-014
lhumerus -7.03447 -15.2177 71.6508
lradius 42.4366
lwrist 15.3806
lhand -20.1882 -7.75447
lfingers 7.12502
lthumb 6.15809 22.136
rfemur -24.9233 6.50851 23.441
rtibia 41.0225
rfoot -26.9851 -21.3333
rtoes -12.938
lfemur -42.7334 -12.6876 -0.317371
ltibia 34.764
lfoot -11.2938 0.834194
ltoes -7.49747
586
root 6.90549 16.7441 28.2831 190.09 -55.941 -171.49
lowerback 10.6694 2.32247 5.28955
upperback 12.1723 2.23028 -0.289779
thorax 7.22503 1.09526 -3.40486
lowerneck -0.121973 -8.05528 -7.73052
upperneck 16.8167 -16.3718 24.4543
head 7.89366 -7.37948 8.18855
rclavicle -2.89853e-014 -8.68565e-014
rhumerus -15.5313 38.3623 -84.3754
rradius 67.4184
rwrist -3.12716
rhand -9.55273 -8.85552
rfingers 7.12502
rthumb 16.4143 -38.181
lclavicle -2.89853e-014 -8.68565e-014
lhumerus -6.32965 -14.9009 71.1299
lradius 42.3711
lwrist 15.2281
lhand -20.4007 -7.88647
lfingers 7.12502
lthumb 5.95294 22.0099
rfemur -24.5756 7.28784 23.4819
rtibia 40.7952
rfoot -26.7088 -21.1757
rtoes -12.8805
lfemur -41.9071 -12.0823 -0.327659
ltibia 34.967
lfoot -11.75 1.36673
ltoes -7.79447
587
root 6.84825 16.7518 28.2329 189.863 -54.4431 -171.332
lowerback 10.4624 2.18258 4.65498
upperback 12.2179 2.00185 -0.694748
thorax 7.34414 0.947947 -3.46879
lowerneck -0.0619001 -8.02506 -7.78008
upperneck 17.148 -16.4727 24.4138
head 8.01105 -7.44003 8.18353
rclavicle -3.47873e-014 1.98785e-016
rhumerus -15.5284 37.8775 -84.345
rradius 67.0478
rwrist -2.99291
rhand -9.6412 -8.87047
rfingers 7.12502
rthumb 16.3291 -38.203
lclavicle -3.47873e-014 1.98785e-016
lhumerus -5.60977 -14.6113 70.5968
lradius 42.3028
lwrist 15.0954
lhand -20.5939 -8.00736
lfingers 7.12502
lthumb 5.76642 21.8942
rfemur -24.1947 8.08978 23.5725
rtibia 40.6556
rfoot -26.396 -20.9633
rtoes -12.9717
lfemur -41.0075 -11.4957 -0.288824
ltibia 35.1874
lfoot -12.212 1.89738
ltoes -8.15055
588
root 6.79008 16.758 28.1853 189.541 -52.9377 -171.102
lowerback 10.275 2.03595 4.11856
upperback 12.2446 1.77296 -1.09605
thorax 7.44055 0.806246 -3.58531
lowerneck -0.0136171 -7.98449 -7.82994
upperneck 17.4738 -16.5568 24.3628
head 8.12508 -7.49383 8.17582
rclavicle 3.73715e-014 -5.28767e-014
rhumerus -15.5553 37.3967 -84.3163
rradius 66.7268
rwrist -2.89003
rhand -9.68521 -8.89366
rfingers 7.12502
rthumb 16.2868 -38.2297
lclavicle 3.73715e-014 -5.28767e-014
lhumerus -4.92536 -14.3322 70.0766
lradius 42.2517
lwrist 14.9917
lhand -20.7709 -8.08708
lfingers 7.12502
lthumb 5.59551 21.819
rfemur -23.8342 8.86124 23.6994
rtibia 40.6341
rfoot -26.0224 -20.6579
rtoes -13.258
lfemur -40.0701 -10.9557 -0.195462
ltibia 35.4174
lfoot -12.6725 2.44235
ltoes -8.50132
589
root 6.73102 16.7626 28.1411 189.143 -51.42 -170.799
lowerback 10.1041 1.89734 3.71102
upperback 12.2458 1.5652 -1.50359
thorax 7.51104 0.684827 -3.78277
lowerneck 0.0310888 -7.94962 -7.84261
upperneck 17.7619 -16.6437 24.3163
head 8.22589 -7.54938 8.16111
rclavicle -7.23576e-014 -1.59028e-015
rhumerus -15.6222 36.8897 -84.3118
rradius 66.4642
rwrist -2.8155
rhand -9.69583 -8.9084
rfingers 7.12502
rthumb 16.2765 -38.2452
lclavicle -7.23576e-014 -1.59028e-015
lhumerus -4.26222 -14.1269 69.5595
lradius 42.214
lwrist 14.9131
lhand -20.9149 -8.173
lfingers 7.12502
lthumb 5.45652 21.7368
rfemur -23.5374 9.58154 23.8631
rtibia 40.7614
rfoot -25.5833 -20.2217
rtoes -13.7112
lfemur -39.1052 -10.4449 -0.0471066
ltibia 35.6464
lfoot -13.135 3.00311
ltoes -8.81141
590
root 6.67199 16.7669 28.0976 188.677 -49.8758 -170.429
lowerback 9.95358 1.76086 3.37821
upperback 12.2212 1.36629 -1.8947
thorax 7.5459 0.572036 -4.00612
lowerneck 0.0532579 -7.90546 -7.85719
upperneck 18.034 -16.703 24.2397
head 8.31761 -7.59288 8.13673
rclavicle 2.22639e-014 5.00937e-014
rhumerus -15.7172 36.442 -84.3223
rradius 66.2638
rwrist -2.77753
rhand -9.70335 -8.93225
rfingers 7.12502
rthumb 16.2693 -38.2697
lclavicle 2.22639e-014 5.00937e-014
lhumerus -3.66609 -13.9429 69.0686
lradius 42.2021
lwrist 14.8442
lhand -21.0545 -8.22433
lfingers 7.12502
lthumb 5.32169 21.6889
rfemur -23.3129 10.2738 24.0758
rtibia 41.0599
rfoot -25.0756 -19.6727
rtoes -14.2959
lfemur -38.0851 -9.92215 0.148447
ltibia 35.8566
lfoot -13.6043 3.563
ltoes -9.10043
591
root 6.61245 16.7712 28.0562 188.211 -48.3034 -170.032
lowerback 9.80498 1.65112 3.16272
upperback 12.156 1.21447 -2.31159
thorax 7.54576 0.493865 -4.32484
lowerneck 0.0829822 -7.88042 -7.77133
upperneck 18.2447 -16.7741 24.147
head 8.38008 -7.64051 8.08461
rclavicle -3.73715e-014 9.54166e-015
rhumerus -15.8689 35.9234 -84.4115
rradius 66.1132
rwrist -2.74706
rhand -9.71948 -8.93348
rfingers 7.12502
rthumb 16.2538 -38.2722
lclavicle -3.73715e-014 9.54166e-015
lhumerus -3.09441 -13.922 68.5553
lradius 42.212
lwrist 14.8016
lhand -21.175 -8.27897
lfingers 7.12502
lthumb 5.20543 21.6371
rfemur -23.2191 10.9052 24.302
rtibia 41.5462
rfoot -24.4802 -18.9853
rtoes -14.957
lfemur -37.0383 -9.37763 0.365214
ltibia 36.0271
lfoot -14.0705 4.1275
ltoes -9.32121
592
root 6.55311 16.7767 28.0158 187.783 -46.7087 -169.642
lowerback 9.64367 1.55128 2.99259
upperback 12.0564 1.08174 -2.72481
thorax 7.51736 0.42898 -4.66591
lowerneck 0.101407 -7.8603 -7.66263
upperneck 18.4057 -16.8261 24.0238
head 8.4192 -7.6799 8.01648
rclavicle 8.74653e-015 -3.4191e-014
rhumerus -16.0435 35.4228 -84.5322
rradius 66.0078
rwrist -2.71833
rhand -9.74345 -8.90834
rfingers 7.12502
rthumb 16.2307 -38.2489
lclavicle 8.74653e-015 -3.4191e-014
lhumerus -2.57275 -13.9674 68.0649
lradius 42.234
lwrist 14.7659
lhand -21.2931 -8.3436
lfingers 7.12502
lthumb 5.09138 21.5752
rfemur -23.2749 11.4737 24.5249
rtibia 42.2267
rfoot -23.7834 -18.1889
rtoes -15.6709
lfemur -35.9619 -8.79204 0.577522
ltibia 36.132
lfoot -14.5259 4.68431
ltoes -9.48117
